<svg xmlns="http://www.w3.org/2000/svg" xmlns:xlink="http://www.w3.org/1999/xlink" width="554pt" height="389pt" viewBox="0.00 0.00 553.50 389.00">
<g id="graph0" class="graph" transform="scale(1 1) rotate(0) translate(4 385)">
<polygon fill="white" stroke="transparent" points="-4,4 -4,-385 549.5,-385 549.5,4 -4,4"/>
<!-- Experiment.Subject -->
<g id="node1" class="node">
<title>Experiment.Subject</title>
<g id="a_node1"><a xlink:title="→ Experiment
→ Subject
">
<polygon fill="transparent" stroke="transparent" points="103,-231 0,-231 0,-212 103,-212 103,-231"/>
<text text-anchor="middle" x="51.5" y="-219" font-family="arial" font-size="10.00">Experiment.Subject</text>
</a>
</g>
</g>
<!-- Session -->
<g id="node2" class="node">
<title>Session</title>
<g id="a_node2"><a xlink:title="→ Experiment.Subject
session_start        
">
<ellipse fill="#ff0000" fill-opacity="0.125490" stroke="#ff0000" stroke-opacity="0.125490" cx="51.5" cy="-150.5" rx="13" ry="13"/>
<text text-anchor="start" x="30" y="-148.4" font-family="arial" text-decoration="underline" font-size="12.00" fill="#7f0000" fill-opacity="0.627451">Session</text>
</a>
</g>
</g>
<!-- Experiment.Subject&#45;&gt;Session -->
<g id="edge1" class="edge">
<title>Experiment.Subject-&gt;Session</title>
<path fill="none" stroke="#000000" stroke-width="0.75" stroke-opacity="0.250980" d="M51.5,-211.76C51.5,-199.58 51.5,-177.43 51.5,-163.65"/>
</g>
<!-- TimeSlice -->
<g id="node10" class="node">
<title>TimeSlice</title>
<g id="a_node10"><a xlink:title="→ Session
→ Chunk
time_slice_start     
------------------------------
time_slice_end       
">
<ellipse fill="#ff0000" fill-opacity="0.125490" stroke="#ff0000" stroke-opacity="0.125490" cx="80.5" cy="-84" rx="13" ry="13"/>
<text text-anchor="middle" x="80.5" y="-80.9" font-family="arial" font-size="12.00" fill="#7f0000" fill-opacity="0.627451">TimeSlice</text>
</a>
</g>
</g>
<!-- Session&#45;&gt;TimeSlice -->
<g id="edge2" class="edge">
<title>Session-&gt;TimeSlice</title>
<path fill="none" stroke="#000000" stroke-width="0.75" stroke-opacity="0.250980" d="M56.55,-138.26C61.87,-126.43 70.21,-107.9 75.51,-96.11"/>
</g>
<!-- FoodPatchEvent -->
<g id="node3" class="node">
<title>FoodPatchEvent</title>
<g id="a_node3"><a xlink:title="→ Chunk
→ ExperimentFoodPatch
event_number         
------------------------------
event_time           
→ EventType
">
<ellipse fill="#00007f" fill-opacity="0.250980" stroke="#00007f" stroke-opacity="0.250980" cx="357.5" cy="-150.5" rx="65.75" ry="17.5"/>
<text text-anchor="start" x="313" y="-148.4" font-family="arial" text-decoration="underline" font-size="12.00" fill="#00007f" fill-opacity="0.627451">FoodPatchEvent</text>
</a>
</g>
</g>
<!-- EventType -->
<g id="node4" class="node">
<title>EventType</title>
<g id="a_node4"><a xlink:title="event_code           
------------------------------
event_type           
">
<polygon fill="#000000" fill-opacity="0.125490" stroke="transparent" points="407.5,-239 343.5,-239 343.5,-204 407.5,-204 407.5,-239"/>
<text text-anchor="start" x="351.5" y="-220" font-family="arial" text-decoration="underline" font-size="10.00">EventType</text>
</a>
</g>
</g>
<!-- EventType&#45;&gt;FoodPatchEvent -->
<g id="edge3" class="edge">
<title>EventType-&gt;FoodPatchEvent</title>
<path fill="none" stroke="#000000" stroke-width="0.75" stroke-dasharray="5,2" stroke-opacity="0.250980" d="M371.14,-203.8C368.31,-192.95 364.64,-178.87 361.82,-168.05"/>
</g>
<!-- Arena -->
<g id="node5" class="node">
<title>Arena</title>
<g id="a_node5"><a xlink:title="arena_name           
------------------------------
arena_description=&quot;&quot; 
→ ArenaShape
arena_x_dim          
arena_y_dim          
arena_z_dim=0        
">
<polygon fill="#000000" fill-opacity="0.125490" stroke="transparent" points="121,-381 78,-381 78,-346 121,-346 121,-381"/>
<text text-anchor="start" x="86" y="-362" font-family="arial" text-decoration="underline" font-size="10.00">Arena</text>
</a>
</g>
</g>
<!-- Experiment -->
<g id="node9" class="node">
<title>Experiment</title>
<g id="a_node9"><a xlink:title="experiment_name      
------------------------------
experiment_start_time 
experiment_description 
→ Arena
→ Location
">
<polygon fill="#00ff00" fill-opacity="0.188235" stroke="#00ff00" stroke-opacity="0.188235" points="138,-310 61,-310 61,-275 138,-275 138,-310"/>
<text text-anchor="start" x="69" y="-290.4" font-family="arial" text-decoration="underline" font-size="12.00" fill="darkgreen">Experiment</text>
</a>
</g>
</g>
<!-- Arena&#45;&gt;Experiment -->
<g id="edge4" class="edge">
<title>Arena-&gt;Experiment</title>
<path fill="none" stroke="#000000" stroke-width="0.75" stroke-dasharray="5,2" stroke-opacity="0.250980" d="M99.5,-345.8C99.5,-334.95 99.5,-320.87 99.5,-310.05"/>
</g>
<!-- SubjectPosition -->
<g id="node6" class="node">
<title>SubjectPosition</title>
<g id="a_node6"><a xlink:title="→ TimeSlice
------------------------------
timestamps           
position_x           
position_y           
position_z=null      
area=null            
speed=null           
">
<ellipse fill="#00007f" fill-opacity="0.250980" stroke="#00007f" stroke-opacity="0.250980" cx="80.5" cy="-17.5" rx="61.75" ry="17.5"/>
<text text-anchor="middle" x="80.5" y="-14.4" font-family="arial" font-size="12.00" fill="#00007f" fill-opacity="0.627451">SubjectPosition</text>
</a>
</g>
</g>
<!-- FoodPatchWheel -->
<g id="node7" class="node">
<title>FoodPatchWheel</title>
<g id="a_node7"><a xlink:title="→ Chunk
→ ExperimentFoodPatch
------------------------------
timestamps           
angle                
intensity            
">
<ellipse fill="#00007f" fill-opacity="0.250980" stroke="#00007f" stroke-opacity="0.250980" cx="205.5" cy="-150.5" rx="68.25" ry="17.5"/>
<text text-anchor="middle" x="205.5" y="-147.4" font-family="arial" font-size="12.00" fill="#00007f" fill-opacity="0.627451">FoodPatchWheel</text>
</a>
</g>
</g>
<!-- ExperimentCamera -->
<g id="node8" class="node">
<title>ExperimentCamera</title>
<g id="a_node8"><a xlink:title="→ Experiment
→ Camera
camera_install_time  
------------------------------
camera_description   
camera_sampling_rate 
">
<polygon fill="#00ff00" fill-opacity="0.188235" stroke="#00ff00" stroke-opacity="0.188235" points="545.5,-239 425.5,-239 425.5,-204 545.5,-204 545.5,-239"/>
<text text-anchor="start" x="433.5" y="-219.4" font-family="arial" text-decoration="underline" font-size="12.00" fill="darkgreen">ExperimentCamera</text>
</a>
</g>
</g>
<!-- Experiment&#45;&gt;Experiment.Subject -->
<g id="edge5" class="edge">
<title>Experiment-&gt;Experiment.Subject</title>
<path fill="none" stroke="#000000" stroke-width="0.75" stroke-opacity="0.250980" d="M87.88,-274.8C78.34,-261.08 65.19,-242.19 57.6,-231.27"/>
</g>
<!-- Experiment&#45;&gt;ExperimentCamera -->
<g id="edge6" class="edge">
<title>Experiment-&gt;ExperimentCamera</title>
<path fill="none" stroke="#000000" stroke-width="0.75" stroke-opacity="0.250980" d="M138.21,-285.99C198.1,-277.26 316.71,-259.17 416.5,-239 419.4,-238.41 422.36,-237.79 425.34,-237.15"/>
</g>
<!-- ExperimentFoodPatch -->
<g id="node12" class="node">
<title>ExperimentFoodPatch</title>
<g id="a_node12"><a xlink:title="→ Experiment
→ FoodPatch
food_patch_install_time 
------------------------------
food_patch_description 
wheel_sampling_rate  
">
<polygon fill="#00ff00" fill-opacity="0.188235" stroke="#00ff00" stroke-opacity="0.188235" points="325,-239 190,-239 190,-204 325,-204 325,-239"/>
<text text-anchor="middle" x="257.5" y="-218.4" font-family="arial" font-size="12.00" fill="darkgreen">ExperimentFoodPatch</text>
</a>
</g>
</g>
<!-- Experiment&#45;&gt;ExperimentFoodPatch -->
<g id="edge7" class="edge">
<title>Experiment-&gt;ExperimentFoodPatch</title>
<path fill="none" stroke="#000000" stroke-width="0.75" stroke-opacity="0.250980" d="M137.34,-274.97C162.27,-264.09 194.77,-249.89 219.69,-239.01"/>
</g>
<!-- Chunk -->
<g id="node14" class="node">
<title>Chunk</title>
<g id="a_node14"><a xlink:title="→ Experiment
chunk_start          
------------------------------
chunk_end            
">
<polygon fill="#00ff00" fill-opacity="0.188235" stroke="#00ff00" stroke-opacity="0.188235" points="172,-239 121,-239 121,-204 172,-204 172,-239"/>
<text text-anchor="middle" x="146.5" y="-218.4" font-family="arial" font-size="12.00" fill="darkgreen">Chunk</text>
</a>
</g>
</g>
<!-- Experiment&#45;&gt;Chunk -->
<g id="edge8" class="edge">
<title>Experiment-&gt;Chunk</title>
<path fill="none" stroke="#000000" stroke-width="0.75" stroke-opacity="0.250980" d="M110.88,-274.8C118.27,-263.95 127.86,-249.87 135.23,-239.05"/>
</g>
<!-- TimeSlice&#45;&gt;SubjectPosition -->
<g id="edge9" class="edge">
<title>TimeSlice-&gt;SubjectPosition</title>
<path fill="none" stroke="#000000" stroke-width="2" stroke-opacity="0.250980" d="M80.5,-70.87C80.5,-60.8 80.5,-46.37 80.5,-35.2"/>
</g>
<!-- FoodPatch -->
<g id="node11" class="node">
<title>FoodPatch</title>
<g id="a_node11"><a xlink:title="food_patch_serial_number 
">
<polygon fill="#000000" fill-opacity="0.125490" stroke="transparent" points="290,-310 225,-310 225,-275 290,-275 290,-310"/>
<text text-anchor="start" x="233" y="-291" font-family="arial" text-decoration="underline" font-size="10.00">FoodPatch</text>
</a>
</g>
</g>
<!-- FoodPatch&#45;&gt;ExperimentFoodPatch -->
<g id="edge10" class="edge">
<title>FoodPatch-&gt;ExperimentFoodPatch</title>
<path fill="none" stroke="#000000" stroke-width="0.75" stroke-opacity="0.250980" d="M257.5,-274.8C257.5,-263.95 257.5,-249.87 257.5,-239.05"/>
</g>
<!-- ExperimentFoodPatch&#45;&gt;FoodPatchEvent -->
<g id="edge11" class="edge">
<title>ExperimentFoodPatch-&gt;FoodPatchEvent</title>
<path fill="none" stroke="#000000" stroke-width="0.75" stroke-opacity="0.250980" d="M281.45,-203.97C297.63,-192.81 318.86,-178.16 334.77,-167.18"/>
</g>
<!-- ExperimentFoodPatch&#45;&gt;FoodPatchWheel -->
<g id="edge12" class="edge">
<title>ExperimentFoodPatch-&gt;FoodPatchWheel</title>
<path fill="none" stroke="#000000" stroke-width="0.75" stroke-opacity="0.250980" d="M244.91,-203.8C236.74,-192.95 226.12,-178.87 217.97,-168.05"/>
</g>
<!-- Camera -->
<g id="node13" class="node">
<title>Camera</title>
<g id="a_node13"><a xlink:title="camera_serial_number 
">
<polygon fill="#000000" fill-opacity="0.125490" stroke="transparent" points="511.5,-310 459.5,-310 459.5,-275 511.5,-275 511.5,-310"/>
<text text-anchor="start" x="467.5" y="-291" font-family="arial" text-decoration="underline" font-size="10.00">Camera</text>
</a>
</g>
</g>
<!-- Camera&#45;&gt;ExperimentCamera -->
<g id="edge13" class="edge">
<title>Camera-&gt;ExperimentCamera</title>
<path fill="none" stroke="#000000" stroke-width="0.75" stroke-opacity="0.250980" d="M485.5,-274.8C485.5,-263.95 485.5,-249.87 485.5,-239.05"/>
</g>
<!-- Chunk&#45;&gt;FoodPatchEvent -->
<g id="edge14" class="edge">
<title>Chunk-&gt;FoodPatchEvent</title>
<path fill="none" stroke="#000000" stroke-width="0.75" stroke-opacity="0.250980" d="M172.31,-207.8C175.38,-206.45 178.49,-205.15 181.5,-204 224.83,-187.43 275.76,-172.74 311.66,-163.14"/>
</g>
<!-- Chunk&#45;&gt;FoodPatchWheel -->
<g id="edge15" class="edge">
<title>Chunk-&gt;FoodPatchWheel</title>
<path fill="none" stroke="#000000" stroke-width="0.75" stroke-opacity="0.250980" d="M160.78,-203.8C170.06,-192.95 182.1,-178.87 191.35,-168.05"/>
</g>
<!-- Chunk&#45;&gt;TimeSlice -->
<g id="edge16" class="edge">
<title>Chunk-&gt;TimeSlice</title>
<path fill="none" stroke="#000000" stroke-width="0.75" stroke-opacity="0.250980" d="M138.41,-203.89C124.71,-175.76 97.32,-119.52 85.8,-95.87"/>
</g>
</g>
</svg>